<?xml version="1.0" encoding="UTF-8"?><svg xmlns="http://www.w3.org/2000/svg" xmlns:xlink="http://www.w3.org/1999/xlink" version="1.1" id="Layer_1" x="0px" y="0px" viewBox="0 0 16 16" xml:space="preserve"><path d="M15 0H8.278C3.941 0 .314 3.259.021 7.42a8.015 8.015 0 0 0 2.323 6.237 8.006 8.006 0 0 0 6.236 2.322c4.16-.293 7.42-3.92 7.42-8.257V1c0-.551-.448-1-1-1z" fill="#2196F3"/><path d="M13 9.5a.5.5 0 0 1-.723.447L11 9.309V10.5a.5.5 0 0 1-.5.5h-6a.5.5 0 0 1-.5-.5v-5a.5.5 0 0 1 .5-.5h6a.5.5 0 0 1 .5.5v1.191l1.276-.638A.5.5 0 0 1 13 6.5v3z" fill="#ECEFF1"/><metadata><rdf:RDF xmlns:rdf="http://www.w3.org/1999/02/22-rdf-syntax-ns#" xmlns:rdfs="http://www.w3.org/2000/01/rdf-schema#" xmlns:dc="http://purl.org/dc/elements/1.1/"><rdf:Description about="https://iconscout.com/legal#licenses" dc:title="google,duo,logo,color,e" dc:description="google,duo,logo,color,e" dc:publisher="Iconscout" dc:date="2018-02-17" dc:format="image/svg+xml" dc:language="en"><dc:creator><rdf:Bag><rdf:li>Pixel Icons</rdf:li></rdf:Bag></dc:creator></rdf:Description></rdf:RDF></metadata></svg>